Patient4_TMGait_0pt4_01_right_06_EMG.mot
version=1
nRows=16
nColumns=33
inDegrees=no
endheader
time	1LAddLong	2LGlutMax	3LGlutMed	4LIliopsoas	5LSemiMemb	6LBicFemLong	7LRecFem	8LVastMed	9LVastLat	10LGasMed	11LTibAnt	12lTibPost	13LPeroneusLong	14LSol	15LExtDigLong	16LFlexDigLong	17RAddLong	18RGlutMax	19RGlutMed	20RIliopsoas	21RSemiMemb	22RBicFemLong	23RRecFem	24RVastMed	25RVastLat	26RGasMed	27RTibAnt	28RTibPost	29RPeroneusLong	30RSol	31RExtDigLong	32RFlexDigLong
8.245	0.01358	-0.00473	0.027466	0.019073	0.099487	0.065918	0.047302	-0.010681	0.059509	0.027618	-0.009766	0.00412	-0.024414	0.042725	-0.00473	-0.000458	0.024109	-0.080719	0.97397	-0.14557	-0.018768	-0.10315	-0.18967	-0.015717	-0.000763	0.020752	0.16449	0.005341	-0.18845	-0.028992	-0.002441	-0.009918
8.246	-0.007477	-0.023041	0.025177	0.02594	-0.034943	0.22476	-0.039215	0.002747	0.072937	0.030975	0.009155	-0.021362	0.009155	0.026398	0.021057	-0.00412	0.020905	-0.086365	0.19119	-0.040131	-0.010681	-0.05249	-0.17548	-0.016479	0.016785	0.00946	0.24307	0.004578	-0.13473	0.011292	-0.00061	-0.014343
8.247	-0.035553	-0.024872	0.044861	0.01358	-0.13245	0.31113	-0.031891	0.016022	0.049744	0.020599	-0.003357	-0.006104	0.011139	0.039368	0.11749	-0.007629	0.00946	-0.002594	-0.059509	0.069427	0.000763	0.034943	-0.18204	0.009308	0.030212	0.010834	0.27786	0.003204	-0.065308	0.030823	-0.003357	-0.010834
8.248	-0.045929	-0.035858	0.016632	0.015106	-0.23453	0.28915	-0.002899	0.019226	0.011444	0.036163	0.033722	0.004425	0.025024	0.054321	0.052338	-0.003052	0.010071	-0.076141	-0.022583	0.18326	0.002136	0.10223	-0.16769	-0.005798	0.019073	0.022736	0.17425	0.006104	-0.11978	-0.059662	-0.004425	-0.012054
8.249	-0.026703	-0.041351	-0.023499	0.005035	-0.25406	0.12817	0.034943	0.021362	-0.028992	0.023651	0.053101	0.006714	0.010681	0.090485	-0.086212	-0.009308	-0.001678	-0.018158	0.3717	0.15045	0.000916	0.071869	-0.16434	0.004883	0.046082	0.016937	-0.012207	0.005188	0.050964	-0.13977	-0.001526	-0.013733
8.25	-0.005493	0.021973	-0.014191	-0.002289	-0.032501	-0.090485	0.052338	0.018921	-0.012512	0.000153	0.002441	0.011902	0.017242	0.075836	-0.12054	-0.00824	-0.008392	0.026398	0.36926	0.14297	0.10498	0.070648	-0.15305	0.02243	0.031586	0.010376	0.19577	0.002594	0.18051	-0.15961	-0.000305	-0.011139
8.251	0.009308	-0.014038	0.015106	0.010681	0.12589	-0.1178	0.041046	0.019531	-0.040588	0.007324	-0.006866	0.006561	0.043793	0.028687	-0.11734	-0.014191	-0.007935	-0.071411	0.20065	0.09491	0.20615	-0.014648	-0.15549	0.001068	0.004272	0.006866	0.28854	0.00473	0.23117	-0.037079	0.009003	-0.010071
8.252	0.002136	-0.017853	-0.011444	0.003967	0.14191	-0.051422	-0.018768	0.010223	-0.16022	0.010071	0.00351	0.014801	-0.005798	0.034027	-0.033722	-0.005646	-0.014038	-0.063477	0.061035	0.047607	0.22812	-0.091095	-0.14832	-0.038147	0.001831	-0.003052	0.16556	0.006409	0.22018	0.16556	-0.002441	-0.013885
8.253	0.008392	-0.003662	-0.015869	0.001678	0.087585	-0.006866	-0.015869	0.01297	-0.20691	0.010071	0.030365	0.000153	0.012512	-0.035553	0.001068	-0.004883	-0.030975	-0.038757	0.066376	0.002441	0.14999	-0.064087	-0.097351	-0.031433	0.002899	-0.004578	0.13275	0.002289	0.005493	0.29266	-0.003662	-0.014191
8.254	-0.000763	0.038452	-0.015717	0.008545	0.046539	0.068512	-0.050964	0.011749	-0.11093	0.000153	-0.014496	0.00885	0.037231	-0.026703	0.019073	-0.010376	-0.014343	-0.028839	0.050049	-0.005493	0.092316	-0.010071	-0.10361	-0.03891	-0.008545	0.000916	0.094604	0.002136	-0.067444	0.28717	-0.005493	-0.014648
8.255	-0.003357	0.06424	-0.045624	0.01297	0.055847	0.098572	-0.06546	0.030823	0.055695	0.019989	-0.003967	0.011444	0.046844	-0.001221	0.029449	-0.010834	-0.013428	-0.028076	0.17807	-0.001526	0.090485	-0.064545	-0.10544	-0.042877	0.014954	0.013275	-0.089569	0.00412	-0.1149	0.16541	-0.00351	-0.006409
8.256	-0.007019	0.047302	-0.028687	-0.00351	0.042267	0.10727	-0.067444	0.024109	0.20126	0.025024	0.021057	0.002899	0.035858	0.019379	0.03067	-0.01236	-0.002289	-0.056763	0.25101	0.020599	0.016785	-0.039978	-0.087433	-0.018463	0.022125	0.021057	-0.24368	0.002899	-0.14816	-0.082397	-0.00351	-0.012207
8.257	-0.005035	0.041046	-0.019989	0.012512	-0.007019	-0.03891	-0.12558	0.01358	0.28259	0.017548	-0.002594	0.014038	-0.003662	0.017853	0.026093	-0.01236	0.01297	-0.075531	0.16953	-0.028229	-0.074768	0.032043	-0.11581	0.032959	0.023346	0.017548	-0.31204	0.003967	-0.25955	-0.23529	-0.000305	-0.020142
8.258	-0.001678	0.017548	0.020294	0.00412	-0.019073	-0.0177	-0.12924	0.009003	0.18295	0.028229	0.022888	0.014954	-0.095062	-0.010681	0.00885	-0.010529	0.005188	-0.089111	0.086365	-0.005188	-0.007935	0.02533	-0.099792	0.042267	0.029907	0.018616	-0.069275	0.001678	-0.24109	-0.28915	0	-0.031281
8.259	0.009766	0.015106	-0.024109	0.009308	-0.012207	0.027161	-0.11124	0.007477	0.059967	0.037689	0.020599	0.007935	-0.09613	0.00885	0.016632	-0.003815	-0.036774	-0.069275	0.047913	0.011902	0.14175	-0.066833	-0.14084	0.075531	0.032501	0.028992	0.28412	0.004883	-0.094757	-0.23178	-0.003815	-0.022125
8.26	0.015869	-0.03418	-0.023499	-0.003052	-0.005493	0.017395	-0.10956	-0.018158	0.097504	0.012207	0.021667	0.005035	0.045624	0.021515	0.02243	-0.013733	-0.05661	-0.062866	0.13672	-0.007629	0.17425	-0.12894	-0.13672	0.022583	0.036774	0.022736	0.1033	0.005035	0.075989	-0.21515	-0.005798	-0.021667
